<?xml version="1.0" encoding="utf-8"?>
<!-- Generator: Adobe Illustrator 15.0.0, SVG Export Plug-In  -->
<!DOCTYPE svg PUBLIC "-//W3C//DTD SVG 1.1//EN" "http://www.w3.org/Graphics/SVG/1.1/DTD/svg11.dtd" [
	<!ENTITY ns_flows "http://ns.adobe.com/Flows/1.0/">
]>
<svg version="1.1"
	 xmlns="http://www.w3.org/2000/svg" xmlns:xlink="http://www.w3.org/1999/xlink" xmlns:a="http://ns.adobe.com/AdobeSVGViewerExtensions/3.0/"
	 x="0px" y="0px" width="313px" height="189px" viewBox="-14.717 -10.011 313 189"
	 overflow="visible" enable-background="new -14.717 -10.011 313 189" xml:space="preserve">
<defs>
</defs>
<path fill="#FFCD05" d="M69.455,92.408c2.753,0,5.406,0.274,7.943,0.787l9.148-71.623c0.396-3.091-1.791-5.597-4.883-5.597H30.438
	c-3.09,0-5.915,2.506-6.311,5.597L13.598,104c-0.395,3.092,1.791,5.598,4.881,5.598H33.67
	C42.525,99.188,55.628,92.408,69.455,92.408z"/>
<path fill="#FFCD05" d="M128.148,49.412H93.971c-3.09,0-5.915,2.506-6.311,5.597l-5.062,39.637
	c7.818,2.801,14.162,8.082,18.252,14.953h19.611c3.09,0,5.916-2.506,6.311-5.598l6.258-48.992
	C133.425,51.917,131.238,49.412,128.148,49.412z"/>
<path fill="#FFCD05" d="M192.261,0h-40.437c-3.09,0-5.915,2.506-6.311,5.597l-7.587,59.395c-0.395,3.091,1.791,5.597,4.881,5.597
	h40.436c3.092,0,5.918-2.506,6.312-5.597l7.588-59.395C197.538,2.506,195.353,0,192.261,0z"/>
<path fill="#FFCD05" d="M182.414,75.418h-40.637c-3.093,0-5.919,2.506-6.314,5.596L132.527,104
	c-0.395,3.092,1.791,5.598,4.883,5.598h40.637c3.09,0,5.916-2.506,6.311-5.598l2.937-22.986
	C187.689,77.924,185.504,75.418,182.414,75.418z"/>
<path fill="#333333" d="M8.543,115.016l-1.188,9.287l3.426,1.746l-0.995,7.79h12.945c0.866-6.78,3.321-13.174,6.931-18.823H8.543z"
	/>
<path fill="#333333" stroke="#333333" stroke-miterlimit="10" d="M67.736,107.024c15.055,0,25.736,11.906,24.342,26.815h7.789
	c1.961-19.21-11.738-34.604-31.095-34.604s-37.157,15.394-40.313,34.604h7.786C38.825,118.93,52.68,107.024,67.736,107.024z"/>
<path fill="#333333" d="M71.69,121.924c-0.833,6.256-6.581,11.327-12.837,11.327s-10.65-5.071-9.816-11.327
	c0.832-6.256,6.579-11.326,12.835-11.326S72.523,115.668,71.69,121.924z"/>
<path fill="#FFFFFF" d="M63.734,119.308c-0.369,2.759-2.902,4.995-5.661,4.995s-4.698-2.236-4.329-4.995
	c0.367-2.759,2.9-4.995,5.66-4.995C62.162,114.313,64.102,116.549,63.734,119.308z"/>
<path fill="#333333" d="M60.623,160.768c-12.09,0-21.412-7.532-24.137-18.159H28.1c2.447,15.089,14.933,26.103,31.466,26.103
	s31.954-11.014,38.421-26.103H89.6C84.043,153.236,72.715,160.768,60.623,160.768z"/>
<ellipse fill="#333333" cx="32.459" cy="167.809" rx="32.459" ry="2.354"/>
<path fill="#333333" d="M278.779,84.536h-57.676c-5.579,0-9.5-4.523-8.757-10.104l2.489-19.49
	c0.743-5.579,5.761-10.103,11.34-10.103h38.799c-4.334-6.661-9.229-11.31-14.455-11.31c-9.244,0-30.534,0-42.804,0
	c-9.318,0-10.378,9.521-10.378,9.521l-9.192,71.965h-84.673c2.166,5.649,2.988,12.043,2.122,18.823h90.269h7.713h0.074
	c2.58-14.909,16.435-26.815,31.49-26.815c14.717,0,25.248,11.379,24.41,25.818c-0.032,0.332-0.062,0.663-0.107,0.997h0.039h7.789
	h10.377l6.111-46.013C283.76,87.827,284.441,84.536,278.779,84.536z"/>
<path fill="#333333" d="M240.612,121.924c-0.834,6.256-6.58,11.327-12.836,11.327s-10.651-5.071-9.818-11.327
	c0.835-6.256,6.581-11.326,12.836-11.326C237.05,110.598,241.446,115.668,240.612,121.924z"/>
<path fill="#FFFFFF" d="M233.146,119.308c-0.368,2.759-2.901,4.995-5.66,4.995s-4.698-2.236-4.33-4.995s2.901-4.995,5.66-4.995
	S233.515,116.549,233.146,119.308z"/>
<path fill="#333333" d="M227.312,160.768c-12.09,0-21.41-7.532-24.136-18.159h-8.387c2.447,15.089,14.933,26.103,31.466,26.103
	s31.953-11.014,38.42-26.103h-8.387C250.734,153.236,239.404,160.768,227.312,160.768z"/>
<ellipse fill="#333333" cx="199.006" cy="167.809" rx="32.459" ry="2.354"/>
</svg>
